<?xml version="1.0" encoding="utf-8"?>
<!-- Generator: Adobe Illustrator 16.0.0, SVG Export Plug-In . SVG Version: 6.00 Build 0)  -->
<!DOCTYPE svg PUBLIC "-//W3C//DTD SVG 1.1//EN" "http://www.w3.org/Graphics/SVG/1.1/DTD/svg11.dtd">
<svg version="1.1" id="Layer_1" xmlns="http://www.w3.org/2000/svg" xmlns:xlink="http://www.w3.org/1999/xlink" x="0px" y="0px"
	 width="595.28px" height="624px" viewBox="0 0 595.28 624" enable-background="new 0 0 595.28 624" xml:space="preserve">
<g>
	<g>
		<polygon fill="#E57E25" points="463,408.82 297.806,503.768 132,408.469 132,494.967 297.5,590.09 463,494.967 		"/>
	</g>
	<g>
		<polygon fill="#E57E25" points="324.298,76.982 489.226,172.751 489.701,364.174 564.612,320.924 564.136,129.855 398.903,33.91 
					"/>
	</g>
	<g>
		<polygon fill="#E57E25" points="270.981,76.982 106.054,172.751 105.578,364.174 30.668,320.924 31.144,129.855 196.376,33.91 		
			"/>
	</g>
	<g>
		<g>
			<polygon fill="#F29646" points="297.806,503.768 132,408.469 132,494.967 297.5,590.09 			"/>
		</g>
		<g>
			<polygon fill="#BA6828" points="297.5,590.09 463,494.967 463,408.82 297.806,503.768 			"/>
		</g>
		<g>
			<polygon fill="#BA6828" points="489.226,172.751 489.701,364.174 564.612,320.924 564.136,129.855 			"/>
		</g>
		<g>
			<polygon fill="#F29646" points="106.054,172.751 105.578,364.174 30.668,320.924 31.144,129.855 			"/>
		</g>
	</g>
	<polygon fill="#E57E25" points="132,188.339 297.5,93.215 463,188.339 463,378.586 297.5,473.709 132,378.586 	"/>
	<g>
		<rect x="290.874" y="322.715" fill="#FFFFFF" width="1.803" height="12.887"/>
		<polygon fill="#FFFFFF" points="298.944,324.283 294.523,324.283 294.523,322.715 305.17,322.715 305.17,324.283 300.748,324.283 
			300.748,335.6 298.944,335.6 		"/>
		<path fill="#FFFFFF" d="M317.374,322.498c3.109,0,4.689,1.699,4.689,1.699l-0.893,1.352c0,0-1.498-1.404-3.729-1.404
			c-2.887,0-4.768,2.195-4.768,4.928c0,2.756,1.914,5.09,4.783,5.09c2.435,0,3.984-1.678,3.984-1.678l0.965,1.293
			c0,0-1.771,2.047-5.006,2.047c-3.863,0-6.589-2.953-6.589-6.738C310.828,325.352,313.63,322.498,317.374,322.498"/>
		<path fill="#FFFFFF" d="M330.538,322.498c3.725,0,6.609,2.867,6.609,6.574c0,3.799-2.889,6.752-6.609,6.752
			c-3.724,0-6.625-2.953-6.625-6.752C323.909,325.365,326.811,322.498,330.538,322.498 M330.538,334.162
			c2.627,0,4.746-2.189,4.746-5.09c0-2.816-2.118-4.928-4.746-4.928c-2.627,0-4.764,2.111-4.764,4.928
			C325.774,331.973,327.911,334.162,330.538,334.162"/>
		<path fill="#FFFFFF" d="M339.768,322.715h1.797l5.732,8.373c0.474,0.701,1.075,1.863,1.075,1.863h0.039
			c0,0-0.125-1.15-0.125-1.863v-8.373h1.808v12.887h-1.768l-5.752-8.361c-0.472-0.713-1.075-1.883-1.075-1.883h-0.044
			c0,0,0.133,1.148,0.133,1.883v8.361h-1.82V322.715L339.768,322.715z"/>
		<path fill="#FFFFFF" d="M353.629,332.758c0,0,1.366,1.385,3.288,1.385c1.205,0,2.217-0.674,2.217-1.896
			c0-2.789-6.233-2.188-6.233-6.15c0-2.008,1.733-3.598,4.161-3.598c2.388,0,3.651,1.297,3.651,1.297l-0.833,1.498
			c0,0-1.178-1.125-2.818-1.125c-1.363,0-2.336,0.857-2.336,1.875c0,2.668,6.243,1.961,6.243,6.135c0,1.984-1.534,3.629-4.097,3.629
			c-2.735,0-4.269-1.701-4.269-1.701L353.629,332.758z"/>
		<path fill="#FFFFFF" d="M363.374,322.715h1.813v8.33c0,1.963,1.272,3.117,3.251,3.117c1.984,0,3.283-1.148,3.283-3.152v-8.287
			h1.81v8.33c0,2.861-2.07,4.777-5.07,4.777c-3.018,0-5.077-1.916-5.077-4.777v-8.33L363.374,322.715L363.374,322.715z"/>
		<polygon fill="#FFFFFF" points="376.85,322.715 378.652,322.715 378.652,334.037 384.424,334.037 384.424,335.6 376.85,335.6 		
			"/>
		<polygon fill="#FFFFFF" points="388.146,324.283 383.73,324.283 383.73,322.715 394.372,322.715 394.372,324.283 389.954,324.283 
			389.954,335.6 388.146,335.6 		"/>
		<rect x="396.211" y="322.715" fill="#FFFFFF" width="1.808" height="12.887"/>
		<path fill="#FFFFFF" d="M401.522,322.715h1.79l5.735,8.373c0.472,0.701,1.078,1.863,1.078,1.863h0.045c0,0-0.131-1.15-0.131-1.863
			v-8.373h1.804v12.887h-1.767l-5.752-8.361c-0.472-0.713-1.079-1.883-1.079-1.883h-0.036c0,0,0.121,1.148,0.121,1.883v8.361h-1.809
			V322.715L401.522,322.715z"/>
		<path fill="#FFFFFF" d="M421.056,322.498c3.085,0,4.691,1.549,4.691,1.549l-0.914,1.354c0,0-1.443-1.256-3.625-1.256
			c-3.026,0-4.856,2.207-4.856,4.961c0,3.004,2.047,5.057,4.748,5.057c2.227,0,3.647-1.605,3.647-1.605v-1.857h-2.096v-1.576h3.743
			v6.473h-1.589v-0.797c0-0.283,0.01-0.549,0.01-0.549h-0.036c0,0-1.398,1.574-3.962,1.574c-3.463,0-6.337-2.744-6.337-6.68
			C414.484,325.424,417.296,322.498,421.056,322.498"/>
		<path fill="#FFFFFF" d="M191.982,311.991c-9.084,0-18.633-2.004-25.352-5.067l2.945-13.681c7.191,2.233,14.505,3.77,22.641,3.77
			c9.084,0,10.852-1.763,10.852-8.372c0-7.076-0.351-7.898-13.209-10.733c-18.984-4.125-21.817-7.898-21.817-24.879
			c0-15.682,5.543-21.936,27.129-21.936c6.832,0,15.094,0.708,23.814,2.595l-1.767,14.857c-8.961-1.533-14.741-2.239-21.813-2.239
			c-7.898,0-9.674,1.414-9.674,7.191c0,7.539,0.355,7.658,12.739,10.613c21.226,5.071,22.288,9.2,22.288,24.645
			C220.759,304.326,215.686,311.991,191.982,311.991"/>
		<path fill="#FFFFFF" d="M307.629,311.991c-10.975,0-17.333-4.127-17.333-14.741v-30.191h-18.593l10.807-13.677h7.786v-13.803
			l16.976-2.356v16.157h13.095l-0.94,13.675h-12.154v27.83c0,2.362,1.419,3.184,3.541,3.184c1.886,0,4.6-0.237,7.075-1.061
			l2.006,12.855C316.12,311.165,311.522,311.991,307.629,311.991"/>
		<path fill="#FFFFFF" d="M361.648,310.811l-1.183-3.645c-6.604,3.645-12.508,4.825-16.396,4.825
			c-10.61,0-14.974-7.659-14.974-17.451c0-11.558,5.308-16.151,17.1-16.151h12.377v-4.368c0-5.892-1.048-7.901-10.137-7.901
			c-5.073,0-10.147,0.594-15.565,1.657l-2.244-12.74c5.428-1.645,14.04-2.825,20.639-2.825c19.934,0,24.287,6.013,24.287,21.932
			v36.678h-13.902L361.648,310.811L361.648,310.811z M358.571,290.172h-8.131c-3.656,0-5.068,0.944-5.068,4.129
			c0,3.179,1.295,4.475,4.602,4.475c3.539,0,6.008-0.827,8.607-2.009L358.571,290.172L358.571,290.172z"/>
		<path fill="#FFFFFF" d="M403.155,288.874c0,5.9,2.479,8.608,9.315,8.608c4.361,0,7.663-0.473,11.806-1.419l2.118,14.158
			c-5.78,1.295-9.908,1.77-13.925,1.77c-18.629,0-26.297-6.955-26.297-23.349V275.55c0-16.393,7.664-23.348,26.297-23.348
			c4.017,0,8.14,0.474,13.925,1.77l-2.118,14.153c-3.545-0.823-8.492-1.416-11.806-1.416c-6.828,0-9.315,2.709-9.315,8.607V288.874z
			"/>
		<path fill="#FFFFFF" d="M251.5,329.211c-3.095,2.033-7.387,3.045-12.881,3.045c-1.66,0-3.296-0.057-4.925-0.174
			c-1.614-0.104-3.263-0.24-4.923-0.4v-13.215c1.505,0.146,3.052,0.291,4.637,0.447c1.589,0.15,3.155,0.178,4.748,0.105
			c2.109-0.219,3.674-1.045,4.693-2.475s1.525-3.022,1.525-4.746c0-1.282-0.225-2.491-0.678-3.62l-20.449-54.797h17.059
			l13.228,40.006h0.222l12.771-40.006h16.61l-24.404,65.655C256.997,323.781,254.585,327.176,251.5,329.211"/>
	</g>
</g>
</svg>
