<?xml version="1.0" encoding="utf-8"?>
<!-- Generator: Adobe Illustrator 16.0.0, SVG Export Plug-In . SVG Version: 6.00 Build 0)  -->
<!DOCTYPE svg PUBLIC "-//W3C//DTD SVG 1.1//EN" "http://www.w3.org/Graphics/SVG/1.1/DTD/svg11.dtd">
<svg version="1.1" id="Layer_1" xmlns="http://www.w3.org/2000/svg" xmlns:xlink="http://www.w3.org/1999/xlink" x="0px" y="0px"
	 width="518px" height="226.585px" viewBox="0 0 518 226.585" enable-background="new 0 0 518 226.585" xml:space="preserve">
<g>
	<rect x="243.583" y="188.935" fill="#FFFFFF" width="3.601" height="25.729"/>
	<polygon fill="#FFFFFF" points="259.697,192.069 250.87,192.069 250.87,188.935 272.13,188.935 272.13,192.069 263.298,192.069 
		263.298,214.662 259.697,214.662 	"/>
	<path fill="#FFFFFF" d="M296.496,188.503c6.205,0,9.361,3.391,9.361,3.391l-1.782,2.699c0,0-2.99-2.803-7.445-2.803
		c-5.761,0-9.517,4.383-9.517,9.838c0,5.5,3.822,10.162,9.549,10.162c4.861,0,7.956-3.352,7.956-3.352l1.926,2.582
		c0,0-3.537,4.09-9.994,4.09c-7.714,0-13.155-5.898-13.155-13.453C283.426,194.199,289.02,188.503,296.496,188.503"/>
	<path fill="#FFFFFF" d="M322.78,188.503c7.435,0,13.194,5.726,13.194,13.125c0,7.584-5.77,13.482-13.194,13.482
		c-7.437,0-13.229-5.898-13.229-13.482C309.543,194.229,315.336,188.503,322.78,188.503 M322.78,211.791
		c5.243,0,9.477-4.371,9.477-10.162c0-5.621-4.231-9.838-9.477-9.838s-9.515,4.217-9.515,9.838
		C313.266,207.419,317.535,211.791,322.78,211.791"/>
	<path fill="#FFFFFF" d="M341.206,188.935h3.588l11.445,16.717c0.946,1.4,2.146,3.723,2.146,3.723h0.08c0,0-0.25-2.299-0.25-3.723
		v-16.717h3.608v25.729h-3.528l-11.484-16.692c-0.942-1.423-2.146-3.761-2.146-3.761h-0.089c0,0,0.265,2.295,0.265,3.761v16.692
		h-3.633L341.206,188.935L341.206,188.935z"/>
	<path fill="#FFFFFF" d="M368.882,208.988c0,0,2.729,2.766,6.564,2.766c2.407,0,4.428-1.348,4.428-3.789
		c0-5.567-12.446-4.364-12.446-12.28c0-4.009,3.461-7.181,8.307-7.181c4.769,0,7.291,2.588,7.291,2.588l-1.661,2.99
		c0,0-2.354-2.246-5.63-2.246c-2.721,0-4.66,1.715-4.66,3.746c0,5.324,12.463,3.914,12.463,12.248c0,3.961-3.062,7.246-8.18,7.246
		c-5.461,0-8.521-3.398-8.521-3.398L368.882,208.988z"/>
	<path fill="#FFFFFF" d="M388.341,188.935h3.62v16.631c0,3.92,2.54,6.225,6.491,6.225c3.96,0,6.556-2.291,6.556-6.295v-16.545h3.61
		v16.633c0,5.711-4.131,9.537-10.121,9.537c-6.025,0-10.138-3.826-10.138-9.537v-16.633L388.341,188.935L388.341,188.935z"/>
	<polygon fill="#FFFFFF" points="415.245,188.935 418.845,188.935 418.845,211.542 430.367,211.542 430.367,214.662 
		415.245,214.662 	"/>
	<polygon fill="#FFFFFF" points="437.801,192.069 428.983,192.069 428.983,188.935 450.23,188.935 450.23,192.069 441.411,192.069 
		441.411,214.662 437.801,214.662 	"/>
	<rect x="453.903" y="188.935" fill="#FFFFFF" width="3.608" height="25.729"/>
	<path fill="#FFFFFF" d="M464.508,188.935h3.574l11.45,16.717c0.941,1.4,2.153,3.723,2.153,3.723h0.09c0,0-0.261-2.299-0.261-3.723
		v-16.717h3.602v25.729h-3.528l-11.484-16.692c-0.942-1.423-2.155-3.761-2.155-3.761h-0.071c0,0,0.241,2.295,0.241,3.761v16.692
		h-3.609L464.508,188.935L464.508,188.935z"/>
	<path fill="#FFFFFF" d="M503.508,188.503c6.159,0,9.366,3.09,9.366,3.09l-1.823,2.703c0,0-2.883-2.506-7.238-2.506
		c-6.043,0-9.697,4.404-9.697,9.903c0,5.999,4.087,10.097,9.481,10.097c4.445,0,7.282-3.207,7.282-3.207v-3.707h-4.185v-3.146h7.472
		v12.923h-3.171v-1.591c0-0.565,0.019-1.099,0.019-1.099h-0.07c0,0-2.792,3.146-7.911,3.146c-6.914,0-12.652-5.479-12.652-13.336
		C490.388,194.341,496,188.503,503.508,188.503"/>
	<path fill="#FFFFFF" d="M51.106,167.523c-18.139,0-37.204-4.001-50.62-10.117l5.882-27.316c14.359,4.459,28.96,7.525,45.204,7.525
		c18.139,0,21.668-3.52,21.668-16.715c0-14.126-0.7-15.77-26.375-21.43C8.962,91.235,3.305,83.7,3.305,49.797
		C3.307,18.486,14.373,6,57.472,6c13.641,0,30.137,1.413,47.548,5.18l-3.529,29.666C83.6,37.783,72.06,36.373,57.939,36.373
		c-15.768,0-19.315,2.824-19.315,14.359c0,15.054,0.709,15.292,25.435,21.191c42.38,10.125,44.499,18.369,44.499,49.206
		C108.563,152.218,98.434,167.523,51.106,167.523"/>
	<path fill="#FFFFFF" d="M277.037,167.523c-21.912,0-34.607-8.24-34.607-29.434V77.81h-37.124l21.579-27.308h15.545V22.944
		l33.895-4.706v32.26h26.145l-1.878,27.304h-24.267v55.567c0,4.715,2.833,6.356,7.07,6.356c3.764,0,9.183-0.476,14.125-2.118
		l4.006,25.669C293.991,165.875,284.812,167.523,277.037,167.523"/>
	<path fill="#FFFFFF" d="M384.895,165.166l-2.362-7.277c-13.183,7.277-24.972,9.636-32.735,9.636
		c-21.188,0-29.898-15.294-29.898-34.843c0-23.077,10.598-32.25,34.142-32.25h24.712v-8.72c0-11.764-2.092-15.777-20.239-15.777
		c-10.129,0-20.259,1.186-31.079,3.309l-4.48-25.436c10.839-3.285,28.033-5.643,41.209-5.643c39.798,0,48.49,12.006,48.49,43.789
		v73.233h-27.756v-0.021H384.895z M378.75,123.958h-16.234c-7.301,0-10.119,1.885-10.119,8.242c0,6.348,2.586,8.936,9.187,8.936
		c7.067,0,11.996-1.652,17.187-4.01L378.75,123.958L378.75,123.958z"/>
	<path fill="#FFFFFF" d="M467.768,121.367c0,11.781,4.948,17.188,18.599,17.188c8.709,0,15.301-0.943,23.571-2.834l4.229,28.27
		c-11.539,2.586-19.782,3.533-27.801,3.533c-37.195,0-52.506-13.887-52.506-46.619v-26.14c0-32.73,15.302-46.617,52.506-46.617
		c8.019,0,16.252,0.947,27.801,3.533l-4.229,28.259c-7.076-1.643-16.954-2.828-23.571-2.828c-13.632,0-18.599,5.409-18.599,17.187
		V121.367z"/>
	<path fill="#FFFFFF" d="M164.969,201.906c-6.178,4.057-14.749,6.08-25.718,6.08c-3.313,0-6.582-0.113-9.833-0.347
		c-3.223-0.206-6.515-0.483-9.829-0.8v-26.389c3.005,0.295,6.094,0.582,9.259,0.896c3.174,0.3,6.299,0.354,9.478,0.212
		c4.212-0.437,7.337-2.089,9.371-4.944c2.034-2.855,3.044-6.033,3.044-9.475c0-2.562-0.449-4.977-1.352-7.229L108.558,50.503h34.061
		l26.41,79.875h0.444l25.498-79.875h33.163l-48.726,131.086C175.943,191.063,171.129,197.839,164.969,201.906"/>
</g>
</svg>
