<?xml version="1.0" encoding="UTF-8" standalone="no"?>
<svg
   xmlns:dc="http://purl.org/dc/elements/1.1/"
   xmlns:cc="http://creativecommons.org/ns#"
   xmlns:rdf="http://www.w3.org/1999/02/22-rdf-syntax-ns#"
   xmlns:svg="http://www.w3.org/2000/svg"
   xmlns="http://www.w3.org/2000/svg"
   viewBox="0 0 1052.3625 744.09998"
   height="744.09998"
   width="1052.3625"
   xml:space="preserve"
   version="1.1"
   id="svg2"><metadata
     id="metadata8"><rdf:RDF><cc:Work
         rdf:about=""><dc:format>image/svg+xml</dc:format><dc:type
           rdf:resource="http://purl.org/dc/dcmitype/StillImage" /></cc:Work></rdf:RDF></metadata><defs
     id="defs6"><clipPath
       id="clipPath22"
       clipPathUnits="userSpaceOnUse"><path
         id="path24"
         d="m 0,595.28 841.89,0 L 841.89,0 0,0 0,595.28 Z" /></clipPath></defs><g
     transform="matrix(1.25,0,0,-1.25,0,744.1)"
     id="g10"><path
       id="path12"
       style="fill:#4b4b4a;fill-opacity:1;fill-rule:nonzero;stroke:none"
       d="m 566.267,221.064 2.957,0 0,-21.128 -2.957,0 0,21.128 z" /><g
       transform="translate(579.4941,218.4919)"
       id="g14"><path
         id="path16"
         style="fill:#4b4b4a;fill-opacity:1;fill-rule:nonzero;stroke:none"
         d="m 0,0 -7.247,0 0,2.572 17.451,0 0,-2.572 -7.243,0 0,-18.556 -2.961,0 L 0,0 Z" /></g><g
       id="g18"><g
         clip-path="url(#clipPath22)"
         id="g20"><g
           transform="translate(609.7178,221.4216)"
           id="g26"><path
             id="path28"
             style="fill:#4b4b4a;fill-opacity:1;fill-rule:nonzero;stroke:none"
             d="M 0,0 C 5.09,0 7.69,-2.783 7.69,-2.783 L 6.227,-4.998 c 0,0 -2.455,2.305 -6.106,2.305 -4.729,0 -7.811,-3.59 -7.811,-8.084 0,-4.515 3.14,-8.345 7.836,-8.345 3.986,0 6.533,2.753 6.533,2.753 l 1.581,-2.122 c 0,0 -2.903,-3.354 -8.201,-3.354 -6.344,0 -10.802,4.845 -10.802,11.042 C -10.743,-4.67 -6.135,0 0,0" /></g><g
           transform="translate(631.2969,202.2997)"
           id="g30"><path
             id="path32"
             style="fill:#4b4b4a;fill-opacity:1;fill-rule:nonzero;stroke:none"
             d="m 0,0 c 4.308,0 7.783,3.59 7.783,8.345 0,4.615 -3.475,8.084 -7.783,8.084 -4.312,0 -7.812,-3.469 -7.812,-8.084 C -7.812,3.59 -4.312,0 0,0 m 0,19.122 c 6.105,0 10.836,-4.696 10.836,-10.777 C 10.836,2.122 6.105,-2.723 0,-2.723 c -6.106,0 -10.864,4.845 -10.864,11.068 0,6.081 4.758,10.777 10.864,10.777" /></g><g
           transform="translate(646.4405,221.0643)"
           id="g34"><path
             id="path36"
             style="fill:#4b4b4a;fill-opacity:1;fill-rule:nonzero;stroke:none"
             d="m 0,0 2.932,0 9.4,-13.732 c 0.782,-1.142 1.766,-3.059 1.766,-3.059 l 0.058,0 c 0,0 -0.21,1.891 -0.21,3.059 l 0,13.732 2.966,0 0,-21.128 -2.907,0 -9.422,13.704 c -0.777,1.169 -1.765,3.085 -1.765,3.085 l -0.062,0 c 0,0 0.213,-1.885 0.213,-3.085 l 0,-13.704 -2.969,0 L 0,0 Z" /></g><g
           transform="translate(669.1573,204.6053)"
           id="g38"><path
             id="path40"
             style="fill:#4b4b4a;fill-opacity:1;fill-rule:nonzero;stroke:none"
             d="m 0,0 c 0,0 2.245,-2.276 5.391,-2.276 1.973,0 3.646,1.107 3.646,3.113 0,4.579 -10.233,3.59 -10.233,10.081 0,3.299 2.843,5.898 6.82,5.898 3.919,0 5.989,-2.123 5.989,-2.123 l -1.351,-2.454 c 0,0 -1.94,1.827 -4.638,1.827 -2.241,0 -3.826,-1.407 -3.826,-3.08 0,-4.372 10.233,-3.205 10.233,-10.059 0,-3.262 -2.517,-5.955 -6.704,-5.955 -4.487,0 -7,2.785 -7,2.785 L 0,0 Z" /></g><g
           transform="translate(685.1357,221.0643)"
           id="g42"><path
             id="path44"
             style="fill:#4b4b4a;fill-opacity:1;fill-rule:nonzero;stroke:none"
             d="m 0,0 2.966,0 0,-13.65 c 0,-3.227 2.095,-5.115 5.327,-5.115 3.263,0 5.391,1.888 5.391,5.177 l 0,13.588 2.961,0 0,-13.65 c 0,-4.695 -3.383,-7.837 -8.318,-7.837 C 3.384,-21.487 0,-18.345 0,-13.65 L 0,0 Z" /></g><g
           transform="translate(707.2294,221.0643)"
           id="g46"><path
             id="path48"
             style="fill:#4b4b4a;fill-opacity:1;fill-rule:nonzero;stroke:none"
             d="m 0,0 2.961,0 0,-18.556 9.456,0 0,-2.572 L 0,-21.128 0,0 Z" /></g><g
           transform="translate(725.752,218.4919)"
           id="g50"><path
             id="path52"
             style="fill:#4b4b4a;fill-opacity:1;fill-rule:nonzero;stroke:none"
             d="m 0,0 -7.243,0 0,2.572 17.451,0 0,-2.572 -7.247,0 0,-18.556 -2.961,0 L 0,0 Z" /></g><path
           id="path54"
           style="fill:#4b4b4a;fill-opacity:1;fill-rule:nonzero;stroke:none"
           d="m 738.979,221.064 2.961,0 0,-21.128 -2.961,0 0,21.128 z" /><g
           transform="translate(747.6866,221.0643)"
           id="g56"><path
             id="path58"
             style="fill:#4b4b4a;fill-opacity:1;fill-rule:nonzero;stroke:none"
             d="m 0,0 2.935,0 9.398,-13.732 c 0.778,-1.142 1.765,-3.059 1.765,-3.059 l 0.062,0 c 0,0 -0.209,1.891 -0.209,3.059 l 0,13.732 2.957,0 0,-21.128 -2.902,0 -9.427,13.704 c -0.773,1.169 -1.765,3.085 -1.765,3.085 l -0.058,0 c 0,0 0.205,-1.885 0.205,-3.085 l 0,-13.704 -2.961,0 L 0,0 Z" /></g><g
           transform="translate(779.7128,221.4216)"
           id="g60"><path
             id="path62"
             style="fill:#4b4b4a;fill-opacity:1;fill-rule:nonzero;stroke:none"
             d="M 0,0 C 5.056,0 7.691,-2.539 7.691,-2.539 L 6.197,-4.755 c 0,0 -2.371,2.062 -5.955,2.062 -4.976,0 -7.967,-3.619 -7.967,-8.139 0,-4.909 3.355,-8.29 7.784,-8.29 3.654,0 5.988,2.634 5.988,2.634 l 0,3.05 -3.441,0 0,2.58 6.13,0 0,-10.627 -2.601,0 0,1.315 c 0,0.451 0.025,0.9 0.025,0.9 l -0.054,0 c 0,0 -2.305,-2.575 -6.496,-2.575 -5.687,0 -10.387,4.49 -10.387,10.952 C -10.777,-4.789 -6.169,0 0,0" /></g><g
           transform="translate(350.3838,238.6524)"
           id="g64"><path
             id="path66"
             style="fill:#4b4b4a;fill-opacity:1;fill-rule:nonzero;stroke:none"
             d="m 0,0 c -14.888,0 -30.554,3.289 -41.571,8.315 l 4.832,22.429 c 11.795,-3.672 23.783,-6.187 37.124,-6.187 14.887,0 17.788,2.902 17.788,13.729 0,11.601 -0.579,12.953 -21.655,17.594 -31.13,6.768 -35.772,12.953 -35.772,40.797 0,25.718 9.089,35.965 44.471,35.965 11.214,0 24.751,-1.162 39.058,-4.254 l -2.898,-24.363 c -14.696,2.513 -24.17,3.674 -35.773,3.674 -12.952,0 -15.854,-2.321 -15.854,-11.795 0,-12.373 0.581,-12.567 20.885,-17.404 C 45.438,70.188 47.177,63.42 47.177,38.092 47.177,12.57 38.863,0 0,0" /></g><g
           transform="translate(548.9658,238.6524)"
           id="g68"><path
             id="path70"
             style="fill:#4b4b4a;fill-opacity:1;fill-rule:nonzero;stroke:none"
             d="m 0,0 c -17.982,0 -28.421,6.768 -28.421,24.17 l 0,49.498 -30.495,0 17.732,22.43 12.763,0 0,22.623 27.84,3.866 0,-26.489 21.462,0 -1.548,-22.43 -19.914,0 0,-45.63 c 0,-3.868 2.32,-5.222 5.8,-5.222 3.095,0 7.545,0.387 11.605,1.741 L 20.111,3.481 C 13.922,1.356 6.382,0 0,0" /></g><g
           transform="translate(632.4932,274.4229)"
           id="g72"><path
             id="path74"
             style="fill:#4b4b4a;fill-opacity:1;fill-rule:nonzero;stroke:none"
             d="m 0,0 -13.337,0 c -5.996,0 -8.317,-1.547 -8.317,-6.769 0,-5.219 2.128,-7.345 7.544,-7.345 5.8,0 9.861,1.354 14.11,3.287 L 0,0 Z m 5.031,-33.835 -1.936,5.995 c -10.827,-5.995 -20.496,-7.931 -26.874,-7.931 -17.402,0 -24.557,12.571 -24.557,28.618 0,18.948 8.703,26.489 28.04,26.489 l 20.296,0 0,7.155 c 0,9.665 -1.735,12.956 -16.624,12.956 -8.317,0 -16.632,-0.969 -25.526,-2.708 l -3.672,20.881 c 8.895,2.708 23.009,4.64 33.837,4.64 32.677,0 39.829,-9.862 39.829,-35.961 l 0,-60.134 -22.813,0 z" /></g><g
           transform="translate(705.5908,276.5537)"
           id="g76"><path
             id="path78"
             style="fill:#4b4b4a;fill-opacity:1;fill-rule:nonzero;stroke:none"
             d="m 0,0 c 0,-9.671 4.061,-14.119 15.273,-14.119 7.155,0 12.566,0.774 19.337,2.323 l 3.48,-23.206 c -9.473,-2.126 -16.243,-2.899 -22.817,-2.899 -30.55,0 -43.117,11.408 -43.117,38.286 l 0,21.46 c 0,26.878 12.567,38.284 43.117,38.284 6.574,0 13.344,-0.774 22.817,-2.9 L 34.61,34.025 C 28.806,35.38 20.689,36.348 15.273,36.348 4.061,36.348 0,31.9 0,22.231 L 0,0 Z" /></g><g
           transform="translate(456.9277,210.4229)"
           id="g80"><path
             id="path82"
             style="fill:#4b4b4a;fill-opacity:1;fill-rule:nonzero;stroke:none"
             d="m 0,0 c -5.064,-3.337 -12.106,-5.003 -21.123,-5.003 -2.719,0 -5.403,0.094 -8.059,0.28 -2.66,0.182 -5.343,0.404 -8.062,0.648 l 0,21.678 c 2.472,-0.248 5.005,-0.494 7.598,-0.743 2.597,-0.247 5.185,-0.307 7.783,-0.184 3.458,0.371 6.021,1.731 7.69,4.076 1.669,2.348 2.501,4.94 2.501,7.78 0,2.102 -0.372,4.08 -1.112,5.933 l -33.535,89.863 27.977,0 21.679,-65.596 0.368,0 20.94,65.596 27.233,0 L 11.857,16.676 C 9.017,8.896 5.065,3.334 0,0" /></g><path
           id="path84"
           style="fill:#4b4b4a;fill-opacity:1;fill-rule:nonzero;stroke:none"
           d="m 752.011,247.287 4.96,0 0,-5.599 -4.96,0 0,5.599 z" /><g
           transform="translate(774.2886,241.6881)"
           id="g86"><path
             id="path88"
             style="fill:#4b4b4a;fill-opacity:1;fill-rule:nonzero;stroke:none"
             d="m 0,0 0,13.598 c 0,1.04 -0.439,1.559 -1.56,1.559 -1.2,0 -3.319,-0.719 -5.079,-1.639 l 0,-13.518 -4.879,0 0,19.477 3.719,0 0.481,-1.64 c 2.439,1.2 5.518,2.04 7.798,2.04 3.24,0 4.4,-2.28 4.4,-5.76 L 4.88,0 0,0 Z" /></g><g
           transform="translate(784.5709,241.6881)"
           id="g90"><path
             id="path92"
             style="fill:#4b4b4a;fill-opacity:1;fill-rule:nonzero;stroke:none"
             d="M 0,0 0,27.436 4.879,28.115 4.879,0 0,0 Z" /></g></g></g></g></svg>