<?xml version="1.0" encoding="UTF-8" standalone="no"?>
<!-- Created with Inkscape (http://www.inkscape.org/) -->

<svg
   xmlns:dc="http://purl.org/dc/elements/1.1/"
   xmlns:cc="http://creativecommons.org/ns#"
   xmlns:rdf="http://www.w3.org/1999/02/22-rdf-syntax-ns#"
   xmlns:svg="http://www.w3.org/2000/svg"
   xmlns="http://www.w3.org/2000/svg"
   xmlns:inkscape="http://www.inkscape.org/namespaces/inkscape"
   version="1.1"
   width="1052.3625"
   height="744.09998"
   id="svg2"
   xml:space="preserve"><metadata
     id="metadata8"><rdf:RDF><cc:Work
         rdf:about=""><dc:format>image/svg+xml</dc:format><dc:type
           rdf:resource="http://purl.org/dc/dcmitype/StillImage" /></cc:Work></rdf:RDF></metadata><defs
     id="defs6"><clipPath
       id="clipPath16"><path
         d="m 106.265,242.667 20.68,-16.787 26.783,-5.358 24.537,12.798 -1.676,7.042 c -97.066,-2.774 -56.992,64.297 -56.992,64.297 l 0,0 -9.328,5.714 c -27.246,-35.881 -4.004,-67.706 -4.004,-67.706"
         inkscape:connector-curvature="0"
         id="path18" /></clipPath><linearGradient
       x1="0"
       y1="0"
       x2="1"
       y2="0"
       id="linearGradient24"
       gradientUnits="userSpaceOnUse"
       gradientTransform="matrix(81.237793,0,0,-81.237793,97.026855,265.44824)"
       spreadMethod="pad"><stop
         id="stop26"
         style="stop-color:#8a8a89;stop-opacity:1"
         offset="0" /><stop
         id="stop28"
         style="stop-color:#f6f6f6;stop-opacity:1"
         offset="1" /></linearGradient><clipPath
       id="clipPath36"><path
         d="m 184.081,354.143 -8.305,-8.967 c 0,0 17.276,-19.274 -6.851,-23.754 l 0,0 -1.808,-5.075 11.148,-11.607 c 0,0 80.516,-2.737 71.291,23.185 l 0,0 -33.628,26.218 -31.847,0 z"
         inkscape:connector-curvature="0"
         id="path38" /></clipPath><linearGradient
       x1="0"
       y1="0"
       x2="1"
       y2="0"
       id="linearGradient44"
       gradientUnits="userSpaceOnUse"
       gradientTransform="matrix(83.174316,0,0,-83.174316,167.11719,329.39941)"
       spreadMethod="pad"><stop
         id="stop46"
         style="stop-color:#8a8a89;stop-opacity:1"
         offset="0" /><stop
         id="stop48"
         style="stop-color:#f6f6f6;stop-opacity:1"
         offset="1" /></linearGradient><clipPath
       id="clipPath56"><path
         d="m 160.723,373.011 c -36.603,-5.804 -63.776,-38.972 -59.759,-52.81 l 0,0 c 4.019,-13.838 50.945,-29.32 59.61,-32.422 l 0,0 c 19.995,-7.156 43.504,-28.733 13.512,-49.282 l 0,0 c -32.684,-22.391 -67.821,4.17 -67.821,4.17 l 0,0 c 2.509,-5.233 24.122,-32.393 60.708,-35.713 l 0,0 c 37.555,-3.41 72.315,19.641 84.815,50.441 l 0,0 c 12.499,30.801 -17.412,36.159 -50.444,45.978 l 0,0 c -33.035,9.822 -49.547,29.462 -23.654,42.853 l 0,0 c 25.886,13.392 71.866,-18.301 71.866,-18.301 l 0,0 c -14.057,28.356 -43.675,46.142 -75.463,46.141 l 0,0 c -4.425,-10e-4 -8.897,-0.346 -13.37,-1.055"
         inkscape:connector-curvature="0"
         id="path58" /></clipPath><linearGradient
       x1="0"
       y1="0"
       x2="1"
       y2="0"
       id="linearGradient64"
       gradientUnits="userSpaceOnUse"
       gradientTransform="matrix(107.50655,128.12131,128.12131,-107.50655,121.04932,226.31055)"
       spreadMethod="pad"><stop
         id="stop66"
         style="stop-color:#e95323;stop-opacity:1"
         offset="0" /><stop
         id="stop68"
         style="stop-color:#f39415;stop-opacity:1"
         offset="0.50723499" /><stop
         id="stop70"
         style="stop-color:#e95323;stop-opacity:1"
         offset="1" /></linearGradient><clipPath
       id="clipPath78"><path
         d="m 0,595.28 841.89,0 L 841.89,0 0,0 0,595.28 z"
         inkscape:connector-curvature="0"
         id="path80" /></clipPath></defs><g
     transform="matrix(1.25,0,0,-1.25,0,744.1)"
     id="g10"><g
       id="g12"><g
         clip-path="url(#clipPath16)"
         id="g14"><g
           id="g20"><g
             id="g22"><path
               d="m 106.265,242.667 20.68,-16.787 26.783,-5.358 24.537,12.798 -1.676,7.042 c -97.066,-2.774 -56.992,64.297 -56.992,64.297 l 0,0 -9.328,5.714 c -27.246,-35.881 -4.004,-67.706 -4.004,-67.706"
               inkscape:connector-curvature="0"
               id="path30"
               style="fill:url(#linearGradient24);stroke:none" /></g></g></g></g><g
       id="g32"><g
         clip-path="url(#clipPath36)"
         id="g34"><g
           id="g40"><g
             id="g42"><path
               d="m 184.081,354.143 -8.305,-8.967 c 0,0 17.276,-19.274 -6.851,-23.754 l 0,0 -1.808,-5.075 11.148,-11.607 c 0,0 80.516,-2.737 71.291,23.185 l 0,0 -33.628,26.218 -31.847,0 z"
               inkscape:connector-curvature="0"
               id="path50"
               style="fill:url(#linearGradient44);stroke:none" /></g></g></g></g><g
       id="g52"><g
         clip-path="url(#clipPath56)"
         id="g54"><g
           id="g60"><g
             id="g62"><path
               d="m 160.723,373.011 c -36.603,-5.804 -63.776,-38.972 -59.759,-52.81 l 0,0 c 4.019,-13.838 50.945,-29.32 59.61,-32.422 l 0,0 c 19.995,-7.156 43.504,-28.733 13.512,-49.282 l 0,0 c -32.684,-22.391 -67.821,4.17 -67.821,4.17 l 0,0 c 2.509,-5.233 24.122,-32.393 60.708,-35.713 l 0,0 c 37.555,-3.41 72.315,19.641 84.815,50.441 l 0,0 c 12.499,30.801 -17.412,36.159 -50.444,45.978 l 0,0 c -33.035,9.822 -49.547,29.462 -23.654,42.853 l 0,0 c 25.886,13.392 71.866,-18.301 71.866,-18.301 l 0,0 c -14.057,28.356 -43.675,46.142 -75.463,46.141 l 0,0 c -4.425,-10e-4 -8.897,-0.346 -13.37,-1.055"
               inkscape:connector-curvature="0"
               id="path72"
               style="fill:url(#linearGradient64);stroke:none" /></g></g></g></g><g
       id="g74"><g
         clip-path="url(#clipPath78)"
         id="g76"><path
           d="m 522.682,221.755 2.957,0 0,-21.128 -2.957,0 0,21.128 z"
           inkscape:connector-curvature="0"
           id="path82"
           style="fill:#ffffff;fill-opacity:1;fill-rule:nonzero;stroke:none" /><g
           transform="translate(535.9092,219.1826)"
           id="g84"><path
             d="m 0,0 -7.247,0 0,2.572 17.451,0 0,-2.572 -7.243,0 0,-18.556 -2.961,0 L 0,0 z"
             inkscape:connector-curvature="0"
             id="path86"
             style="fill:#ffffff;fill-opacity:1;fill-rule:nonzero;stroke:none" /></g><g
           transform="translate(566.1328,222.1123)"
           id="g88"><path
             d="M 0,0 C 5.09,0 7.69,-2.783 7.69,-2.783 L 6.227,-4.998 c 0,0 -2.455,2.305 -6.106,2.305 -4.729,0 -7.811,-3.59 -7.811,-8.084 0,-4.515 3.14,-8.345 7.836,-8.345 3.986,0 6.533,2.753 6.533,2.753 l 1.581,-2.122 c 0,0 -2.903,-3.354 -8.201,-3.354 -6.344,0 -10.802,4.845 -10.802,11.042 C -10.743,-4.67 -6.135,0 0,0"
             inkscape:connector-curvature="0"
             id="path90"
             style="fill:#ffffff;fill-opacity:1;fill-rule:nonzero;stroke:none" /></g><g
           transform="translate(587.7119,202.9902)"
           id="g92"><path
             d="m 0,0 c 4.308,0 7.783,3.59 7.783,8.345 0,4.615 -3.475,8.084 -7.783,8.084 -4.312,0 -7.812,-3.469 -7.812,-8.084 C -7.812,3.59 -4.312,0 0,0 m 0,19.122 c 6.105,0 10.836,-4.696 10.836,-10.777 C 10.836,2.122 6.105,-2.723 0,-2.723 c -6.105,0 -10.864,4.845 -10.864,11.068 0,6.081 4.759,10.777 10.864,10.777"
             inkscape:connector-curvature="0"
             id="path94"
             style="fill:#ffffff;fill-opacity:1;fill-rule:nonzero;stroke:none" /></g><g
           transform="translate(602.8555,221.7549)"
           id="g96"><path
             d="m 0,0 2.932,0 9.4,-13.732 c 0.782,-1.142 1.766,-3.059 1.766,-3.059 l 0.058,0 c 0,0 -0.21,1.891 -0.21,3.059 l 0,13.732 2.966,0 0,-21.128 -2.907,0 -9.422,13.704 c -0.777,1.169 -1.765,3.085 -1.765,3.085 l -0.062,0 c 0,0 0.213,-1.885 0.213,-3.085 l 0,-13.704 -2.969,0 L 0,0 z"
             inkscape:connector-curvature="0"
             id="path98"
             style="fill:#ffffff;fill-opacity:1;fill-rule:nonzero;stroke:none" /></g><g
           transform="translate(625.5723,205.2959)"
           id="g100"><path
             d="m 0,0 c 0,0 2.245,-2.276 5.391,-2.276 1.973,0 3.646,1.107 3.646,3.113 0,4.579 -10.233,3.59 -10.233,10.081 0,3.299 2.843,5.898 6.82,5.898 3.919,0 5.989,-2.123 5.989,-2.123 l -1.351,-2.454 c 0,0 -1.94,1.827 -4.638,1.827 -2.241,0 -3.826,-1.407 -3.826,-3.08 0,-4.372 10.233,-3.205 10.233,-10.059 0,-3.262 -2.517,-5.955 -6.704,-5.955 -4.487,0 -7,2.785 -7,2.785 L 0,0 z"
             inkscape:connector-curvature="0"
             id="path102"
             style="fill:#ffffff;fill-opacity:1;fill-rule:nonzero;stroke:none" /></g><g
           transform="translate(641.5508,221.7549)"
           id="g104"><path
             d="m 0,0 2.966,0 0,-13.65 c 0,-3.227 2.095,-5.115 5.327,-5.115 3.263,0 5.391,1.888 5.391,5.177 l 0,13.588 2.961,0 0,-13.65 c 0,-4.695 -3.383,-7.837 -8.318,-7.837 C 3.384,-21.487 0,-18.345 0,-13.65 L 0,0 z"
             inkscape:connector-curvature="0"
             id="path106"
             style="fill:#ffffff;fill-opacity:1;fill-rule:nonzero;stroke:none" /></g><g
           transform="translate(663.6445,221.7549)"
           id="g108"><path
             d="m 0,0 2.961,0 0,-18.556 9.456,0 0,-2.572 L 0,-21.128 0,0 z"
             inkscape:connector-curvature="0"
             id="path110"
             style="fill:#ffffff;fill-opacity:1;fill-rule:nonzero;stroke:none" /></g><g
           transform="translate(682.167,219.1826)"
           id="g112"><path
             d="m 0,0 -7.243,0 0,2.572 17.451,0 0,-2.572 -7.247,0 0,-18.556 -2.961,0 L 0,0 z"
             inkscape:connector-curvature="0"
             id="path114"
             style="fill:#ffffff;fill-opacity:1;fill-rule:nonzero;stroke:none" /></g><path
           d="m 695.395,221.755 2.961,0 0,-21.128 -2.961,0 0,21.128 z"
           inkscape:connector-curvature="0"
           id="path116"
           style="fill:#ffffff;fill-opacity:1;fill-rule:nonzero;stroke:none" /><g
           transform="translate(704.1016,221.7549)"
           id="g118"><path
             d="m 0,0 2.936,0 9.397,-13.732 c 0.778,-1.142 1.765,-3.059 1.765,-3.059 l 0.062,0 c 0,0 -0.209,1.891 -0.209,3.059 l 0,13.732 2.957,0 0,-21.128 -2.902,0 -9.427,13.704 c -0.773,1.169 -1.765,3.085 -1.765,3.085 l -0.058,0 c 0,0 0.205,-1.885 0.205,-3.085 l 0,-13.704 -2.961,0 L 0,0 z"
             inkscape:connector-curvature="0"
             id="path120"
             style="fill:#ffffff;fill-opacity:1;fill-rule:nonzero;stroke:none" /></g><g
           transform="translate(736.1279,222.1123)"
           id="g122"><path
             d="M 0,0 C 5.056,0 7.69,-2.539 7.69,-2.539 L 6.197,-4.755 c 0,0 -2.371,2.062 -5.955,2.062 -4.976,0 -7.967,-3.619 -7.967,-8.139 0,-4.909 3.355,-8.29 7.784,-8.29 3.654,0 5.988,2.634 5.988,2.634 l 0,3.05 -3.442,0 0,2.58 6.131,0 0,-10.627 -2.601,0 0,1.315 c 0,0.451 0.025,0.899 0.025,0.899 l -0.055,0 c 0,0 -2.304,-2.574 -6.495,-2.574 -5.687,0 -10.387,4.49 -10.387,10.952 C -10.777,-4.789 -6.169,0 0,0"
             inkscape:connector-curvature="0"
             id="path124"
             style="fill:#ffffff;fill-opacity:1;fill-rule:nonzero;stroke:none" /></g><g
           transform="translate(350.3838,238.6523)"
           id="g126"><path
             d="m 0,0 c -14.888,0 -30.554,3.289 -41.571,8.315 l 4.832,22.429 c 11.795,-3.672 23.783,-6.187 37.124,-6.187 14.887,0 17.788,2.902 17.788,13.729 0,11.601 -0.579,12.953 -21.654,17.594 -31.131,6.768 -35.773,12.953 -35.773,40.797 0,25.718 9.089,35.966 44.471,35.966 11.214,0 24.751,-1.163 39.058,-4.255 l -2.898,-24.363 c -14.696,2.514 -24.17,3.674 -35.773,3.674 -12.952,0 -15.854,-2.321 -15.854,-11.795 0,-12.373 0.581,-12.567 20.885,-17.404 C 45.438,70.188 47.177,63.42 47.177,38.092 47.177,12.57 38.863,0 0,0"
             inkscape:connector-curvature="0"
             id="path128"
             style="fill:#ffffff;fill-opacity:1;fill-rule:nonzero;stroke:none" /></g><g
           transform="translate(548.9658,238.6523)"
           id="g130"><path
             d="m 0,0 c -17.982,0 -28.421,6.769 -28.421,24.17 l 0,49.498 -30.495,0 17.731,22.43 12.764,0 0,22.623 27.84,3.866 0,-26.489 21.462,0 -1.548,-22.43 -19.914,0 0,-45.63 c 0,-3.868 2.32,-5.222 5.8,-5.222 3.094,0 7.545,0.387 11.605,1.741 L 20.111,3.481 C 13.922,1.356 6.382,0 0,0"
             inkscape:connector-curvature="0"
             id="path132"
             style="fill:#ffffff;fill-opacity:1;fill-rule:nonzero;stroke:none" /></g><g
           transform="translate(632.4932,274.4229)"
           id="g134"><path
             d="m 0,0 -13.337,0 c -5.996,0 -8.317,-1.547 -8.317,-6.769 0,-5.219 2.128,-7.345 7.544,-7.345 5.8,0 9.861,1.354 14.11,3.287 L 0,0 z m 5.031,-33.835 -1.936,5.995 c -10.827,-5.995 -20.496,-7.931 -26.874,-7.931 -17.402,0 -24.557,12.571 -24.557,28.618 0,18.948 8.703,26.489 28.04,26.489 l 20.296,0 0,7.155 c 0,9.665 -1.735,12.956 -16.624,12.956 -8.317,0 -16.632,-0.968 -25.526,-2.708 l -3.672,20.881 c 8.895,2.708 23.009,4.64 33.837,4.64 32.677,0 39.829,-9.862 39.829,-35.961 l 0,-60.134 -22.813,0 z"
             inkscape:connector-curvature="0"
             id="path136"
             style="fill:#ffffff;fill-opacity:1;fill-rule:nonzero;stroke:none" /></g><g
           transform="translate(705.5908,276.5537)"
           id="g138"><path
             d="m 0,0 c 0,-9.671 4.061,-14.119 15.272,-14.119 7.156,0 12.567,0.774 19.338,2.323 l 3.48,-23.206 c -9.473,-2.126 -16.243,-2.899 -22.818,-2.899 -30.549,0 -43.116,11.408 -43.116,38.286 l 0,21.46 c 0,26.878 12.567,38.284 43.116,38.284 6.575,0 13.345,-0.774 22.818,-2.9 L 34.61,34.025 C 28.806,35.38 20.688,36.348 15.272,36.348 4.061,36.348 0,31.9 0,22.231 L 0,0 z"
             inkscape:connector-curvature="0"
             id="path140"
             style="fill:#ffffff;fill-opacity:1;fill-rule:nonzero;stroke:none" /></g><g
           transform="translate(456.9277,210.4229)"
           id="g142"><path
             d="m 0,0 c -5.064,-3.337 -12.106,-5.003 -21.123,-5.003 -2.719,0 -5.403,0.094 -8.059,0.28 -2.66,0.182 -5.343,0.404 -8.062,0.648 l 0,21.678 c 2.472,-0.248 5.005,-0.494 7.598,-0.743 2.597,-0.247 5.185,-0.307 7.783,-0.184 3.458,0.371 6.021,1.731 7.69,4.076 1.669,2.348 2.501,4.94 2.501,7.78 0,2.102 -0.372,4.08 -1.112,5.933 l -33.535,89.863 27.977,0 21.679,-65.596 0.368,0 20.94,65.596 27.233,0 L 11.856,16.676 C 9.017,8.896 5.064,3.334 0,0"
             inkscape:connector-curvature="0"
             id="path144"
             style="fill:#ffffff;fill-opacity:1;fill-rule:nonzero;stroke:none" /></g></g></g></g></svg>